<?xml version="1.0" encoding="utf-8"?>
<!-- Generator: Adobe Illustrator 15.1.0, SVG Export Plug-In . SVG Version: 6.00 Build 0)  -->
<!DOCTYPE svg PUBLIC "-//W3C//DTD SVG 1.1//EN" "http://www.w3.org/Graphics/SVG/1.1/DTD/svg11.dtd">
<svg version="1.1" id="Layer_1" xmlns="http://www.w3.org/2000/svg" xmlns:xlink="http://www.w3.org/1999/xlink" x="0px" y="0px"
	 width="500px" height="500px" viewBox="0 0 500 500" enable-background="new 0 0 500 500" xml:space="preserve">
<g id="_x37_BMIrA_1_">
	<g>
		<path fill="#FFFFFF" d="M388,193.056c19.688-4.979,23.015-26.318,35-39c19.157,4.418-2.55,30.192-10,39
			c-8.274,9.784-26.581,25.476-41,14c-5.381-4.283-6.744-15.315-5-24c4.549-22.649,19.131-44.342,20-67
			c-30.382,15.292-36.562,63.432-51,98c-5.86,1.323-14.781,4.302-21,2c1.284-9.383,4.973-16.36,8-24
			c-5.996,3.565-23.041,19.442-41,15c-12.812-3.169-19.716-20.767-3-25c5.691-0.358,4.191,6.476,10,6
			c17.351-5.649,10.495-35.505,12-57c-14.249,26.084-21.961,58.706-58,63c-5.564,20.784-51.53,40.335-58,7
			c-10.929,15.404-24.873,27.794-41,38c-6.489,19.667-14.041,62.861-44,51c-5.804-2.299-9.282-9.578-10-14
			c-4.174-25.697,22.365-37.147,37-45c15.74-43.926,30.214-89.12,46-133c-14.659,16.719-64.411,39.757-81,61
			c-7.903,10.12-13.158,46.075,10,46c8.891-0.029,11.915-7.159,17-13c25.783,6.665,1.806,31.246-18,31
			c-23.642-0.293-36.542-22.137-33-51c3.307-26.953,27.808-39.988,50-56c29.987-21.636,52.073-38.599,71-61
			c23.562,6.521,8.827,31.708,2,51c-12.437,35.146-26.641,77.134-38,109c11.387-9.97,26.39-23.526,36-45
			c10.6-23.686,11.465-51.244,28-64c8.977-6.925,25.233-9.743,35-3c22.907,15.815,1.588,56-4,76c34.212-15.122,38.855-59.811,58-90
			c7.829-0.162,11.604,3.729,17,6c-4.102,23.565-4.507,50.826-4,79c27.254-26.746,34.081-82.586,52-122
			c7.521,0.188,12.281-2.386,20-2c-3.333,20.333-11.847,35.487-17,54c-0.19,0.81-1.003,0.997-1,2c10.485-13.583,38.57-18.107,37,10
			C408.638,140.431,385.518,171.583,388,193.056z M214,159.056c-6.716,20.006-16.271,33.876-6,42c9.103,0.103,11.894-6.106,15-12
			c-2.132-3.868-2.285-9.715-2-16c2.778-3.556,5.516-7.15,11-8c1.105-14.776,21.082-39.479,6-48
			C224.677,117.9,220.077,140.953,214,159.056z M109,271.057c8.185-1.158,9.936-14.053,10-20
			C113.959,255.837,104.29,262.688,109,271.057z"/>
		<path fill="#FFFFFF" d="M243,298.057c3.675,0.32,8.116-0.427,13,0c-0.465,6.037-1.634,9.032-3,13c-5.322,0.344-9.678,1.654-15,2
			c-16.052,34.012-21.545,91.753-65,97.999c-19.049,2.738-34.258-2.923-44-14c-20.651-23.482-11.388-80.444,28-80.999
			c2.207,4.793,2.819,11.18,3,18c-31.459,3.772-32.38,59.375,5,57c33.096-2.104,39.998-49.483,49-74c-3.227-0.49-11.379,1.158-16,0
			c0.079-4.922,1.961-8.039,3-12c5.03-0.972,9.89-2.111,16-2c10.551-15.783,14.003-38.664,22-57c-25.718,9.281-68.595,1.405-70,35
			c-5.035,0.574-12.18,3.438-17,1c-10.223-60.229,70.173-38.49,97-65C279.574,231.872,248,272.5,243,298.057z"/>
		<path fill="#FFFFFF" d="M329,336.057c-8.194,17.088-46.912,31.976-49,2c-1.718-24.66,27.037-55.752,13-69
			c-16.327,29.34-28.047,63.285-46,91c-17.563-1.777-3.151-20.582,2-31c11.314-22.881,24.027-52.162,34-71
			c-9.604-6.933-10.782-30.242-1-38c8.475,1.994,15.159,8.37,12,19c5.501,12.217,19.188,16.184,23,28c8.14,25.23-19.68,49.721-15,72
			c36.661-18.674,36.443-74.224,55-111c6.739-0.444,15.459-3.625,21-2c-7.882,32.459-23.968,62.021-29,94
			c31.98-13.693,36.293-63.703,51-98c6.842-0.022,14.74-3.657,21-1c-11.154,35.512-23.805,69.528-36,104
			c15.322-7.348,24.554-29.445,36-44c5.754-0.422,7.664,3.002,10,6c-12.541,25.791-29.253,47.412-54,61
			c-7.555,16.588-10.577,48.592-30,52.999c-18.462,4.19-29.77-10.56-24-28.999c4.656-14.885,24.097-24.113,36-31
			c1.771-3.229,2.999-7.002,4-11c0.19-0.811,1.003-0.998,1-2C358.227,335.859,338.411,350.432,329,336.057z M341,382.057
			c7.222-1.229,11.176-15.998,9-20C346.234,367.532,335.291,373.396,341,382.057z"/>
	</g>
</g>
</svg>
